# xmcd CD database file
#
# Track frame offsets:
#	150
#	21816
#	39284
#	53419
#	74706
#	91835
#	115827
#	133885
#	155133
#
# Disc length: 2236 seconds
#
# Revision: 0
# Processed by: cddbd v1.5.2PL0 Copyright (c) Steve Scherf et al.
# Submitted via: CDex 1.70beta2
#
DISCID=7508ba09
DTITLE=Johannes Enders and Florian Kästner - Duo
DYEAR=2017
DGENRE=Jazz
TTITLE0=Astoria Tempelhof
TTITLE1=My Ship
TTITLE2=Love Me Tender
TTITLE3=Klavierstück
TTITLE4=Lay Gee Dah
TTITLE5=Trügerisch
TTITLE6=Speak Low
TTITLE7=Fall
TTITLE8=Columbo
EXTD=YEAR: 2017
EXTT0=
EXTT1=
EXTT2=
EXTT3=
EXTT4=
EXTT5=
EXTT6=
EXTT7=
EXTT8=
PLAYORDER=
